<svg id="Layer_1" data-name="Layer 1" xmlns="http://www.w3.org/2000/svg" viewBox="0 0 422.55 369.55"><defs><style>.cls-1{fill:#357b3c;}</style></defs><title>FINAL Logo</title><path class="cls-1" d="M434.49,86.56c-.47-2.08-1.89-3.73-3.25-5.37a120.64,120.64,0,0,1-13.33-20.1,29.12,29.12,0,0,1-2.89-7c-1.1-4.86-.42-10.86-4.44-13.8,7-2.61,12.47-11.56,10.58-19-1.29-5-3.83-4.34-8.29-2.33-.89.39-9.78,7.07-8.78,7.65a48.07,48.07,0,0,0-30-5.65c-5.7.8-11.7,2.57-16.93.26-5-2.19-8-7.68-13.19-9.41a5.13,5.13,0,0,0-4.76.4,5.84,5.84,0,0,0-1.75,3.1c-1.56,5.47-1.28,8.57,1.4,13.57-10.34-1-20.71.28-30.84-2.1-4.88-1.15-9.66-5-14.61-5.47-5.25-.53-10.53,0-15.78.38-47.44,3.66-95.74.49-142.67.49-10.06,0-20.1,1.47-30.09.35-6.6-.73-13.09-2.34-19.73-2.22A38.19,38.19,0,0,0,65.3,26.35a14.77,14.77,0,0,0-2.45-.42c-12.63-1.21-24.11,4-34.59,11.28A32.4,32.4,0,0,0,14.51,60.48c-1,10.51.74,21,2.35,31.47,3,19.26,6.12,38.73,6.31,58.23,0,5.67,0,11.39-1.36,16.92-1.16,4.88-3.29,9.53-4.85,14.31a62.38,62.38,0,0,0-2.73,24.73c.35,3.75,1,7.54.84,11.32-.49,8.82-5.63,18.32-1.08,25.86.28-.23.52-.46.77-.7,0,.42-.07.87-.14,1.29-.16,1.82-.28,3.76.61,5.37s3.15,2.54,4.6,1.44c3,9.62-2.57,14,2.52,17.19s14.73,2.56,20.66,2.56H82.56a18.63,18.63,0,0,1-2.38-9c0-.47,0-.91,0-1.31a2.58,2.58,0,0,1-3.71-1.86l-7.17-39.74c-.49-2.64-1-5.37-.28-8,1.12-4.27,5.09-7.14,8.83-9.5l-.66-.54a21,21,0,0,1,.61-13A39.86,39.86,0,0,0,79.57,183c.86-3.43-.07-7.07-.91-10.53a86.82,86.82,0,0,1-2-9.85l-.3.73a2.38,2.38,0,0,1-3.39.3,4.13,4.13,0,0,1-1.73-3.34c1-15.31,7-21.13,11.79-23.93,10.35-10.76,27.65-10.27,41.56-10.46,18.51-.23,36.93,5.58,55.35,3.65,5.67-.59,11.49-1,17.07-2.34,7.75-1.91,13.75-6.68,21.68-5.58,1.19-5.79,6.75-11.6,9.9-16.57s4.2-9.11,10-10.11c-7.29-1.22-15.9-6.61-19.08-13.29A33.31,33.31,0,0,1,237.59,83c2.29.81,4.53,1.91,6.94,2.17,5.06.46,9.76-2.94,14.82-3.09S268.9,85,273,87.94c3.43,2.4,6.81,4.81,10.22,7.21a22.2,22.2,0,0,1,6.8,7.43c1.68,3,.49,8.89-2.9,8.7,1.89.73.54,2.27-.77,3.76a3.89,3.89,0,0,1-3.69,1.24,55,55,0,0,0-6.11-.65,40.83,40.83,0,0,0-11.44.91c-2.15.56-4.55,1.12-6,2.87a10.46,10.46,0,0,0-1.49,3.1c-.8,2.45-1.64,4.86-2.45,7.31a3.81,3.81,0,0,0-.33,1.82,4.83,4.83,0,0,0,1.33,2.12c2,2.43,2.54,5.7,3,8.81,1.1,7.37,2,14.84,1.19,22.27s-3.5,14.82-8.75,20.14c-3.39,3.44-7.71,5.84-12,8.15q-8.08,4.41-16.31,8.57a12.53,12.53,0,0,0-3.93,2.75c-1.58,1.94-1.75,4.65-1.75,7.12a99.62,99.62,0,0,0,1,13.9l.1,0c-1.73,9.34-2.83,19.19.28,28.13a61,61,0,0,0,6.39,12.21c1,1.54,1.92,3.11,2.88,4.62h49.84c5.39-.21,6.81-.35,12.21-.53,1.07-.05,2.4-.26,2.75-1.26.49-1.38-1.17-2.43-2.47-3.06-3.81-1.85-4.39-5-7.24-8.15-2.05-2.24-2.64-10.71-2.66-13.77,0-1.22.33-2.41.42-3.62a19.44,19.44,0,0,0-.19-4.23c-.37-3.12-.74-6.28-1.1-9.4-1.68-8.15-.18-21.23,2.69-29,.91-2.43,2-4.91,1.84-7.45a37.78,37.78,0,0,0-.7-3.73c-.63-3.67.42-7.36,1.45-10.88l.89-.61c4.27.28,8.66.54,12.79-.65,7-2,12-7.83,17.14-13A142.48,142.48,0,0,1,342,140.32c5-3.08,10.86-7.14,10.37-13a19.71,19.71,0,0,1-.38-3.59,8.71,8.71,0,0,1,1.12-3.27,43.08,43.08,0,0,1,10.13-13.38,24.41,24.41,0,0,1,15.44-6c7.33,0,14.21,4.18,21.57,3.9,2.33-.07,4.67-.61,7-.42,1.56.14,3.13.61,4.69.75a11.88,11.88,0,0,0,9.43-3.32l-.65-.68c2.29,2,6,1.45,8.31-.49s3.55-4.85,4.55-7.68C434.35,91,435,88.73,434.49,86.56Zm-402,12.12c-1.94,19.56,2.8,39.24,2.5,58.66-.12-1.14-.26-2.31-.47-3.52q-5.38-30.36-8.78-61c-.77-6.94-1.47-14-.37-20.85S29.56,58.22,35.1,54a20.9,20.9,0,0,1,2.61-1.71C33.93,57.92,31.85,66,31.5,71.81,31,80.51,33.37,90,32.48,98.68ZM391.86,52.52s-5.53,1.64-7.8-.63-4-1.72-4-1.72c2.66-2.67,5.28-3.09,8.92-3.09s6,5.79,6.14,6.14C392.42,51.57,391.86,52.52,391.86,52.52Z" transform="translate(-12.12 -11.37)"/><path class="cls-1" d="M260.69,91.34c4.11.44,3.31,3.57,3.31,3.57A3.55,3.55,0,0,0,261.13,93s-.37.88-2.72,1a3.91,3.91,0,0,1-3.49-2,9.14,9.14,0,0,1,3.42-1.25A5,5,0,0,1,260.69,91.34Z" transform="translate(-12.12 -11.37)"/><path class="cls-1" d="M29.37,341.1v39.82H14.52V286.77H95v12.32H29.37v29.69H95V341.1Z" transform="translate(-12.12 -11.37)"/><path class="cls-1" d="M102.42,380.92V286.77h14.67v94.15Z" transform="translate(-12.12 -11.37)"/><path class="cls-1" d="M124.51,380.92V286.77h94.83v12.15h-80v27h66.48v12.32H139.36V368.6h80v12.32Z" transform="translate(-12.12 -11.37)"/><path class="cls-1" d="M226.75,380.92V286.77h14.68V368.6H315.5v12.32Z" transform="translate(-12.12 -11.37)"/><path class="cls-1" d="M322.92,380.92V286.77h44.37c37.63,0,60.41,17,60.41,47.07,0,30.21-22.78,47.08-60.41,47.08Zm44.37-12.15c25.82,0,44.88-11.64,44.88-34.93,0-23.11-19.06-34.75-44.88-34.75H337.6v69.68Z" transform="translate(-12.12 -11.37)"/></svg>